HIERARCHY
ROOT Hips
{
	OFFSET 0.000000 0.000000 0.000000
	CHANNELS 6 Xposition Yposition Zposition Xrotation Yrotation Zrotation
	JOINT LeftUpLeg_virtual
	{
		OFFSET 0.000000 0.000000 0.000000
		CHANNELS 3 Xrotation Yrotation Zrotation
		JOINT LeftUpLeg
		{
			OFFSET 13.026900 -6.336304 -1.092800
			CHANNELS 3 Xrotation Yrotation Zrotation
			JOINT LeftLeg
			{
				OFFSET 0.524474 -46.096886 9.782700
				CHANNELS 3 Xrotation Yrotation Zrotation
				JOINT LeftFoot
				{
					OFFSET -0.524474 -53.427422 -12.948200
					CHANNELS 3 Xrotation Yrotation Zrotation
					JOINT LeftToeBase
					{
						OFFSET 0.192200 -14.009700 16.364100
						CHANNELS 3 Xrotation Yrotation Zrotation
						JOINT LeftToe_End
						{
							OFFSET -1.784700 -0.561700 9.474800
							CHANNELS 3 Xrotation Yrotation Zrotation
							End Site
							{
								OFFSET 0 0 0
							}
						}
					}
				}
			}
		}
	}
	JOINT RightUpLeg_virtual
	{
		OFFSET 0.000000 0.000000 0.000000
		CHANNELS 3 Xrotation Yrotation Zrotation
		JOINT RightUpLeg
		{
			OFFSET -12.883000 -6.336304 -1.092800
			CHANNELS 3 Xrotation Yrotation Zrotation
			JOINT RightLeg
			{
				OFFSET -0.524587 -46.096825 9.782800
				CHANNELS 3 Xrotation Yrotation Zrotation
				JOINT RightFoot
				{
					OFFSET 0.524587 -53.427383 -12.948300
					CHANNELS 3 Xrotation Yrotation Zrotation
					JOINT RightToeBase
					{
						OFFSET -0.192200 -14.009700 16.364100
						CHANNELS 3 Xrotation Yrotation Zrotation
						JOINT RightToe_End
						{
							OFFSET 1.784700 -0.561700 9.474800
							CHANNELS 3 Xrotation Yrotation Zrotation
							End Site
							{
								OFFSET 0 0 0
							}
						}
					}
				}
			}
		}
	}
	JOINT Spine_virtual
	{
		OFFSET 0.000000 0.000000 0.000000
		CHANNELS 3 Xrotation Yrotation Zrotation
		JOINT Spine
		{
			OFFSET 0.072000 7.257294 -0.789700
			CHANNELS 3 Xrotation Yrotation Zrotation
			JOINT Spine1
			{
				OFFSET 0.000000 12.508769 -0.658067
				CHANNELS 3 Xrotation Yrotation Zrotation
				JOINT Spine1_split
				{
					OFFSET 0.000000 12.508769 -0.658067
					CHANNELS 3 Xrotation Yrotation Zrotation
					JOINT Spine2
					{
						OFFSET 0.000000 12.508769 -0.658067
						CHANNELS 3 Xrotation Yrotation Zrotation
						JOINT Neck_virtual
						{
							OFFSET 0.000000 0.000000 0.000000
							CHANNELS 3 Xrotation Yrotation Zrotation
							JOINT Neck
							{
								OFFSET 0.000000 14.033295 7.520400
								CHANNELS 3 Xrotation Yrotation Zrotation
								JOINT Head
								{
									OFFSET 0.000000 8.198502 5.703100
									CHANNELS 3 Xrotation Yrotation Zrotation
									JOINT HeadTop_End
									{
										OFFSET 0.000000 17.760803 13.332701
										CHANNELS 3 Xrotation Yrotation Zrotation
										End Site
										{
											OFFSET 0 0 0
										}
									}
								}
							}
						}
						JOINT LeftShoulder_virtual
						{
							OFFSET 0.000000 0.000000 0.000000
							CHANNELS 3 Xrotation Yrotation Zrotation
							JOINT LeftShoulder
							{
								OFFSET 6.292450 5.785301 -0.669000
								CHANNELS 3 Xrotation Yrotation Zrotation
								JOINT LeftShoulder_split
								{
									OFFSET 6.292450 5.785301 -0.669000
									CHANNELS 3 Xrotation Yrotation Zrotation
									JOINT LeftArm
									{
										OFFSET 13.907140 -6.093903 1.965100
										CHANNELS 3 Xrotation Yrotation Zrotation
										JOINT LeftForeArm
										{
											OFFSET 34.140198 0.000000 0.000000
											CHANNELS 3 Xrotation Yrotation Zrotation
											JOINT LeftHand
											{
												OFFSET 40.960209 0.000000 0.000000
												CHANNELS 3 Xrotation Yrotation Zrotation
												End Site
												{
													OFFSET 0 0 0
												}
											}
										}
									}
								}
							}
						}
						JOINT RightShoulder_virtual
						{
							OFFSET 0.000000 0.000000 0.000000
							CHANNELS 3 Xrotation Yrotation Zrotation
							JOINT RightShoulder
							{
								OFFSET -6.292450 5.785301 -0.669000
								CHANNELS 3 Xrotation Yrotation Zrotation
								JOINT RightShoulder_split
								{
									OFFSET -6.292450 5.785301 -0.669000
									CHANNELS 3 Xrotation Yrotation Zrotation
									JOINT RightArm
									{
										OFFSET -13.907140 -6.093903 1.965100
										CHANNELS 3 Xrotation Yrotation Zrotation
										JOINT RightForeArm
										{
											OFFSET -34.140198 0.000000 0.000000
											CHANNELS 3 Xrotation Yrotation Zrotation
											JOINT RightHand
											{
												OFFSET -40.960209 0.000000 0.000000
												CHANNELS 3 Xrotation Yrotation Zrotation
												End Site
												{
													OFFSET 0 0 0
												}
											}
										}
									}
								}
							}
						}
					}
				}
			}
		}
	}
}
MOTION
Frames: 4
Frame Time: 0.03333333
2.639994 114.108032 3.642014 0.000000 0.000000 0.000000 3.835429 42.169786 -1.825556 -30.460219 5.143585 6.072231 21.607105 -7.854400 1.476302 1.172131 -15.625154 -9.365916 1.921046 -1.292375 0.155483 0.000000 0.000000 0.000000 4.714712 44.945513 -2.909182 -18.204385 16.900408 3.675349 18.910912 16.219246 -1.692408 -5.805138 -5.494460 3.895782 -3.116810 0.840962 -7.961860 0.000000 0.000000 0.000000 1.101510 47.638537 -2.273196 4.810343 -0.731814 -0.851939 0.049023 -0.804375 1.808884 0.111804 0.047561 0.018161 0.000000 0.000000 0.000000 3.848485 2.497904 2.216753 -4.273094 14.439718 -8.604586 -23.868407 -13.655967 -12.978109 0.000000 0.000000 0.000000 1.476854 1.335165 1.522726 1.437010 0.234450 1.723491 8.385130 -1.969812 0.145523 -69.827326 18.780179 -19.964319 11.910882 -64.438122 10.266632 0.000000 0.000000 0.000000 2.661154 0.816664 1.793482 -0.781123 1.556743 4.983759 -3.207187 -1.975388 2.276999 3.962506 22.334896 71.096682 6.634748 19.323223 -4.134188 0.000000 0.000000 0.000000 
1.715276 114.422859 4.418144 0.000000 0.000000 0.000000 4.891356 47.345283 -2.841584 -31.365195 5.370106 7.116392 21.080851 -10.207138 1.583311 0.672029 -15.678841 -10.472101 2.835660 -1.635953 1.230631 0.000000 0.000000 0.000000 5.621074 49.871862 -3.868698 -16.502803 15.954347 3.914917 17.519478 14.381470 -1.362636 -6.791371 -7.253161 3.890787 -2.273927 0.763110 -6.589452 0.000000 0.000000 0.000000 1.756704 52.393476 -3.064095 4.785665 -0.995667 -0.948139 -0.018190 -1.211419 1.695746 0.111808 0.088193 -0.014331 0.000000 0.000000 0.000000 3.579173 2.116475 2.183607 -3.924496 14.360492 -8.765354 -23.575146 -16.045286 -12.305350 0.000000 0.000000 0.000000 1.377257 0.923325 1.429124 1.445058 -2.663996 1.836084 7.945557 -1.912203 -0.102775 -69.251090 16.073679 -22.065297 8.979100 -62.541071 8.693163 0.000000 0.000000 0.000000 2.581362 0.514049 1.800159 -0.681325 0.963068 4.992767 -3.647236 -1.770536 2.484990 2.641342 19.722016 70.812505 6.148619 19.545474 -3.555629 0.000000 0.000000 0.000000 
0.728308 114.708794 4.750744 0.000000 0.000000 0.000000 5.661737 51.712940 -3.689331 -32.060665 6.324455 8.411913 20.220194 -11.468471 1.701260 0.645201 -14.642076 -11.046931 4.177829 -1.980179 2.282599 0.000000 0.000000 0.000000 6.318327 53.874309 -4.655205 -15.294496 14.594647 4.056632 16.674293 12.443334 -1.034430 -7.532180 -8.750688 4.342728 -1.325959 0.846512 -5.471441 0.000000 0.000000 0.000000 2.426109 56.500937 -3.854919 4.807599 -1.232490 -1.105854 -0.041004 -1.514101 1.598447 0.124634 0.112545 -0.035014 0.000000 0.000000 0.000000 3.351136 1.814878 2.156297 -3.845199 14.366722 -8.943106 -23.085667 -18.341696 -11.598467 0.000000 0.000000 0.000000 1.309124 0.596765 1.348648 1.449010 -5.341893 2.005835 7.443240 -1.924966 -0.328889 -68.830364 13.720628 -23.781119 6.587658 -60.990229 7.672868 0.000000 0.000000 0.000000 2.531641 0.291867 1.800748 -0.603351 0.653526 5.194593 -4.118232 -1.639641 2.554626 1.102292 16.176287 70.116215 5.607843 19.559258 -2.882141 0.000000 0.000000 0.000000 
-0.217528 114.915970 4.657310 0.000000 0.000000 0.000000 6.097713 55.221567 -4.280331 -32.300829 7.847513 9.863121 18.980254 -11.262571 1.790937 1.106118 -12.447551 -10.740633 5.291575 -2.315937 3.149205 0.000000 0.000000 0.000000 6.670565 56.927113 -5.188199 -14.685955 13.199992 4.143005 16.484436 10.566167 -0.778415 -7.940642 -9.902121 5.192434 -0.551698 1.081919 -4.667239 0.000000 0.000000 0.000000 3.044156 59.909160 -4.594682 4.864371 -1.457603 -1.331558 -0.023153 -1.723673 1.549287 0.129290 0.115941 -0.037755 0.000000 0.000000 0.000000 3.171241 1.594128 2.158032 -4.016071 14.427873 -9.148384 -22.351260 -20.382367 -10.901930 0.000000 0.000000 0.000000 1.287944 0.348541 1.317694 1.454259 -7.699832 2.204301 6.877082 -2.003073 -0.637583 -68.532656 11.766840 -25.193013 4.756742 -59.839977 7.127429 0.000000 0.000000 0.000000 2.526976 0.142034 1.814015 -0.538924 0.617183 5.533866 -4.548031 -1.594748 2.524401 -0.724066 11.958493 69.029054 4.991608 19.353150 -2.135314 0.000000 0.000000 0.000000 
